<?xml version="1.0" encoding="UTF-8" standalone="no"?>
<!-- Created with Inkscape (http://www.inkscape.org/) -->

<svg
   xmlns:dc="http://purl.org/dc/elements/1.1/"
   xmlns:cc="http://creativecommons.org/ns#"
   xmlns:rdf="http://www.w3.org/1999/02/22-rdf-syntax-ns#"
   xmlns:svg="http://www.w3.org/2000/svg"
   xmlns="http://www.w3.org/2000/svg"
   xmlns:sodipodi="http://sodipodi.sourceforge.net/DTD/sodipodi-0.dtd"
   xmlns:inkscape="http://www.inkscape.org/namespaces/inkscape"
   width="516.59402"
   height="90.233627"
   id="svg3293"
   version="1.1"
   inkscape:version="0.48.2 r9819"
   sodipodi:docname="nubarchivo3.svg">
  <defs
     id="defs3295" />
  <sodipodi:namedview
     id="base"
     pagecolor="#ffffff"
     bordercolor="#666666"
     borderopacity="1.0"
     inkscape:pageopacity="0.0"
     inkscape:pageshadow="0"
     inkscape:zoom="0.98994949"
     inkscape:cx="188.82496"
     inkscape:cy="42.079973"
     inkscape:document-units="px"
     inkscape:current-layer="layer1"
     showgrid="false"
     inkscape:window-width="1366"
     inkscape:window-height="746"
     inkscape:window-x="1358"
     inkscape:window-y="-8"
     inkscape:window-maximized="1"
     fit-margin-top="0"
     fit-margin-left="0"
     fit-margin-right="0"
     fit-margin-bottom="0" />
  <metadata
     id="metadata3298">
    <rdf:RDF>
      <cc:Work
         rdf:about="">
        <dc:format>image/svg+xml</dc:format>
        <dc:type
           rdf:resource="http://purl.org/dc/dcmitype/StillImage" />
        <dc:title></dc:title>
      </cc:Work>
    </rdf:RDF>
  </metadata>
  <g
     inkscape:label="Capa 1"
     inkscape:groupmode="layer"
     id="layer1"
     transform="translate(-131.03043,-403.49892)">
    <text
       xml:space="preserve"
       style="font-size:95.62033081px;font-style:normal;font-weight:normal;line-height:125%;letter-spacing:0px;word-spacing:0px;fill:#000000;fill-opacity:1;stroke:none;display:inline;font-family:Sans"
       x="243.60602"
       y="465.28845"
       id="text5004-2"
       sodipodi:linespacing="125%"><tspan
         sodipodi:role="line"
         id="tspan5006-7"
         x="243.60602"
         y="465.28845"
         style="font-size:66.93423462px"><tspan
           style="font-size:66.93423462px;fill:#5ec5ed;fill-opacity:1"
           id="tspan5778-6">nub</tspan><tspan
           style="font-size:66.93423462px;font-weight:bold;fill:#3e3e40;fill-opacity:1;-inkscape-font-specification:Sans Bold"
           id="tspan5008-1"><tspan
   style="font-weight:normal;fill:#5ec5ed;fill-opacity:1;-inkscape-font-specification:Sans"
   id="tspan3976-4">a</tspan>rchiva</tspan></tspan></text>
    <text
       font-size="13.7547"
       id="text1935-3"
       style="font-size:8.38124752px;font-style:italic;font-variant:normal;font-weight:normal;font-stretch:normal;text-align:start;line-height:125%;writing-mode:lr-tb;text-anchor:start;display:inline;font-family:Arial"
       sodipodi:linespacing="125%"
       x="248.23944"
       y="493.47473">
      <tspan
         style="font-size:22px;font-style:normal;-inkscape-font-specification:Arial"
         id="tspan5872">Módulo Alfresco</tspan>
    </text>
    <path
       inkscape:connector-curvature="0"
       d="m 146.97206,408.14306 c -0.86559,0 -1.59344,0.62419 -1.59344,1.36652 l 0,6.87657 c -0.002,0.0352 -0.0513,0.0526 -0.0513,0.088 l 0,52.19163 c 0,1.24664 1.16775,2.2481 2.62144,2.2481 l 61.32132,0 c 1.45369,0 2.62144,-1.00146 2.62144,-2.2481 l 0,-52.19163 c 0,-1.24665 -1.16775,-2.24811 -2.62144,-2.24811 l -24.20985,0 0,-4.71662 c 0,-0.74231 -0.72781,-1.36651 -1.5934,-1.36651 l -36.49468,0 z"
       id="path938"
       style="font-size:12px;fill:none;stroke:#5ec5ed;stroke-width:3.04642129;stroke-linejoin:round;stroke-miterlimit:4;stroke-opacity:1;stroke-dasharray:none;display:inline" />
    <g
       id="g4616"
       transform="matrix(-0.41547028,0,0,-0.41547028,181.09584,466.68105)">
      <path
         d="M 45.966,76.098 24.941,54.635 24.178,53.853 c -12.051,-12.33 -31.69,-12.33 -43.683,-0.048 -12.09,12.273 -12.09,32.232 0,44.519 11.993,12.32 31.579,12.32 43.625,0 L 45.966,76.098 z"
         id="path4618"
         inkscape:connector-curvature="0"
         style="fill:#ffffff" />
    </g>
    <path
       d="m 161.99834,435.07664 v -12.5954 l -0.0179,-0.46283 c 0,-7.22171 5.75218,-13.111 12.84301,-13.111 7.09125,0 12.84218,5.85232 12.84218,13.07444 0,7.22959 -5.77254,13.0952 -12.84218,13.0952 H 161.9983 z"
       id="path4620"
       inkscape:connector-curvature="0"
       style="fill:#ffffff" />
    <path
       d="m 161.99834,435.07664 v -12.5954 l -0.0179,-0.46283 c 0,-7.22171 5.75218,-13.111 12.84301,-13.111 7.09125,0 12.84218,5.85232 12.84218,13.07444 0,7.22959 -5.77254,13.0952 -12.84218,13.0952 H 161.9983 z"
       id="path4622"
       inkscape:connector-curvature="0"
       style="fill:#ffffff" />
    <path
       d="m 161.99834,435.07664 v -12.5954 l -0.0179,-0.46283 c 0,-7.22171 5.75218,-13.111 12.84301,-13.111 7.09125,0 12.84218,5.85232 12.84218,13.07444 0,0.80518 -0.0848,1.5846 -0.21646,2.33494 -5.00433,-3.55227 -11.92523,-3.04914 -16.3745,1.51023 l -9.07637,9.23798 v 0.0116 z"
       id="path4624"
       inkscape:connector-curvature="0"
       style="fill:#ffffff" />
    <path
       d="m 174.82307,433.42597 c 6.17846,0 11.20108,-5.12316 11.20108,-11.44454 0,-6.2977 -5.02262,-11.40923 -11.20108,-11.40923 -6.19923,0 -11.20398,5.11153 -11.20398,11.40923 v 0.49566 10.94888 h 11.17947 0.0245 z"
       id="path4626"
       inkscape:connector-curvature="0"
       style="fill:#8bc037" />
    <path
       d="m 161.99834,435.07664 -8.72862,-8.90145 -0.35938,-0.32448 c -4.98647,-5.11611 -5.00974,-13.42136 0,-18.5225 5.02345,-5.10572 13.13883,-5.10572 18.16395,0 5.00516,5.10114 5.00516,13.39725 0,18.51128 l -9.07595,9.23715 z"
       id="path4628"
       inkscape:connector-curvature="0"
       style="fill:#ffffff" />
    <path
       d="m 169.90349,424.66454 c 4.38446,-4.46049 4.38446,-11.7092 0,-16.15681 -4.3641,-4.46257 -11.46116,-4.46257 -15.84562,0 -4.36535,4.44844 -4.36535,11.6959 0,16.15681 l 0.36478,0.33487 7.57569,7.73522 7.90473,-8.05514 v -0.0149 z"
       id="path4630"
       inkscape:connector-curvature="0"
       style="fill:#8bc037" />
    <path
       d="m 161.99834,435.07664 h -12.36855 l -0.44996,0.0224 c -7.09291,0 -12.84468,-5.8627 -12.84468,-13.09313 0,-7.23417 5.73183,-13.07318 12.82308,-13.07318 7.09125,0 12.83928,5.8494 12.83928,13.07318 v 13.0707 z"
       id="path4632"
       inkscape:connector-curvature="0"
       style="fill:#ffffff" />
    <path
       d="m 160.36138,422.00594 c 0,-6.31265 -5.00267,-11.42543 -11.20274,-11.42543 -6.17222,0 -11.17656,5.11278 -11.17656,11.42543 0,6.32055 5.00434,11.42003 11.17656,11.42003 h 0.46949 10.73325 v -11.3897 -0.0303 z"
       id="path4634"
       inkscape:connector-curvature="0"
       style="fill:#8bc037" />
    <path
       d="m 161.99834,435.07664 -8.7282,8.91433 -0.3382,0.3357 c -5.00724,5.1028 -13.14007,5.12399 -18.14607,0.0233 -5.00725,-5.11651 -5.00725,-13.39642 0,-18.51044 5.006,-5.11403 13.13883,-5.11403 18.14607,0 l 9.0664,9.23715 z"
       id="path4636"
       inkscape:connector-curvature="0"
       style="fill:#ffffff" />
    <path
       d="m 151.76115,427.02192 c -4.34623,-4.47462 -11.43873,-4.47462 -15.82485,0 -4.38819,4.45342 -4.38819,11.68094 0,16.146 4.38612,4.46008 11.47862,4.46008 15.82485,0 l 0.35938,-0.34899 7.56198,-7.74229 -7.88189,-8.04517 -0.0395,-0.01 z"
       id="path4638"
       inkscape:connector-curvature="0"
       style="fill:#8bc037" />
    <path
       d="m 161.99834,435.07664 v 12.60537 0.46948 c 0,7.21589 -5.7256,13.09188 -12.83928,13.09188 -7.07172,0 -12.80022,-5.83777 -12.80022,-13.07028 0,-7.23167 5.72767,-13.09562 12.80022,-13.09562 h 12.83928 v -8.3e-4 z"
       id="path4640"
       inkscape:connector-curvature="0"
       style="fill:#ffffff" />
    <g
       id="g4642"
       transform="matrix(-0.41547028,0,0,-0.41547028,181.09584,466.68105)">
      <path
         d="m 76.869,72.068 c 14.856,0 26.902,-12.31 26.902,-27.517 0,-15.149 -12.045,-27.488 -26.902,-27.488 -14.922,0 -27.02,12.339 -27.02,27.488 l 0.056,1.178 v 26.338 h 26.808 0.156 z"
         id="path4644"
         inkscape:connector-curvature="0"
         style="fill:#f99f38" />
      <path
         d="m 45.966,76.069 -21.025,-21.455 -0.82,-0.76 c -12.047,-12.33 -12.047,-32.303 0,-44.582 11.995,-12.304 31.582,-12.304 43.669,0 12.052,12.281 12.052,32.252 0,44.534 L 45.966,76.069 z"
         id="path4646"
         inkscape:connector-curvature="0"
         style="fill:#ffffff" />
    </g>
    <path
       d="m 154.08114,445.3911 c -4.36369,4.46215 -4.36369,11.70422 0,16.15972 4.38238,4.458 11.45825,4.458 15.84229,0 4.38778,-4.45592 4.38778,-11.69757 0,-16.15972 l -0.31949,-0.34234 -7.60602,-7.72193 -7.89393,8.04433 -0.0229,0.0199 z"
       id="path4648"
       inkscape:connector-curvature="0"
       style="fill:#0081c6" />
    <path
       d="m 161.99834,434.97028 h 12.35774 l 0.46699,-0.0129 c 7.06964,0 12.84218,5.86519 12.84218,13.0923 0,7.2217 -5.75093,13.08523 -12.82057,13.08523 -7.09208,0 -12.84634,-5.86353 -12.84634,-13.0898 v -13.07485 z"
       id="path4650"
       inkscape:connector-curvature="0"
       style="fill:#ffffff" />
    <path
       d="m 163.62116,448.04513 c 0,6.31265 5.00434,11.42086 11.22352,11.42086 6.17472,0 11.19899,-5.10821 11.19899,-11.41214 0,-6.30767 -5.02427,-11.43416 -11.19899,-11.43416 l -0.4886,0.0129 h -10.73492 v 11.38804 0.0245 z"
       id="path4652"
       inkscape:connector-curvature="0"
       style="fill:#0081c6" />
    <path
       d="m 161.99834,434.97028 30.97123,-0.0129 c 0,3.34536 -1.23395,6.69821 -3.76998,9.26208 -4.98232,5.10239 -13.12014,5.10239 -18.12489,0 l -9.07636,-9.2492 z"
       id="path4654"
       inkscape:connector-curvature="0"
       style="fill:#ffffff" />
    <path
       d="m 172.22472,443.04577 -7.92302,-8.07549 h 10.52137 c 5.68613,0 10.52178,-3.77954 12.20112,-9.03108 0.34234,0.30288 0.70546,0.61033 1.02205,0.95517 4.3882,4.46132 4.3882,11.67845 0,16.1514 -4.34208,4.45551 -11.45742,4.45551 -15.82152,0"
       id="path4656"
       inkscape:connector-curvature="0"
       style="fill:#0081c6" />
    <path
       d="m 172.20478,443.0358 -6.26986,-6.39658 8.91807,-0.0274 c 5.13272,0 9.46108,3.51613 10.77438,8.3173 -4.25732,2.43299 -9.83334,1.84843 -13.40182,-1.88374 l -0.0208,-0.01 z"
       id="path4658"
       inkscape:connector-curvature="0"
       style="fill:#005ea5" />
    <path
       d="m 163.61701,448.02186 0.01,-9.0477 6.29437,6.41861 c 3.62498,3.70391 4.26314,9.30694 1.8771,13.64986 -4.70603,-1.34405 -8.1802,-5.75468 -8.1802,-10.99584 v -0.0245 h -8.3e-4 z"
       id="path4660"
       inkscape:connector-curvature="0"
       style="fill:#005ea5" />
    <path
       d="m 160.40999,438.95422 v 9.07637 c 0,5.22994 -3.46876,9.64763 -8.18061,11.0029 -2.38313,-4.35455 -1.93442,-9.813 1.80564,-13.58713 l 6.37497,-6.49214 z"
       id="path4662"
       inkscape:connector-curvature="0"
       style="fill:#005ea5" />
    <path
       d="m 158.0709,436.73395 -6.28856,6.42899 c -3.6229,3.70101 -9.12373,4.32629 -13.38521,1.89662 1.3453,-4.79827 5.44973,-8.24584 10.50143,-8.32977 l 9.17234,0.004 z"
       id="path4664"
       inkscape:connector-curvature="0"
       style="fill:#ffdf4f" />
    <path
       d="m 158.07131,433.43304 h -8.90103 c -5.13272,0 -9.45735,-3.49577 -10.77938,-8.30484 4.2835,-2.44172 9.78183,-1.80231 13.42052,1.89704 l 6.25989,6.4078 z"
       id="path4666"
       inkscape:connector-curvature="0"
       style="fill:#48a64a" />
    <path
       d="m 160.36222,422.06619 v 9.03232 l -6.30435,-6.40863 c -3.62498,-3.71098 -4.23821,-9.34019 -1.85549,-13.6831 4.70728,1.35028 8.15984,5.77836 8.15984,11.01537 v 0.044 z"
       id="path4668"
       inkscape:connector-curvature="0"
       style="fill:#48a64a" />
    <path
       d="m 169.88853,424.68614 -6.2657,6.39077 -0.0141,-9.07969 c 0,-5.23368 3.44715,-9.63226 8.15485,-10.98878 2.38438,4.35123 1.7458,9.96714 -1.87502,13.66025 v 0.0174 z"
       id="path4670"
       inkscape:connector-curvature="0"
       style="fill:#48a64a" />
    <path
       d="m 174.7595,433.43013 h -8.86031 l 6.28315,-6.41777 c 3.61709,-3.69602 9.16154,-4.3346 13.41636,-1.90368 -1.33822,4.8128 -5.66701,8.32103 -10.80014,8.32103 h -0.0391 z"
       id="path4672"
       inkscape:connector-curvature="0"
       style="fill:#48a64a" />
    <rect
       height="55.020161"
       id="rect922"
       rx="2.6239908"
       sodipodi:fill-cmyk="(0 0 0 0.5)"
       sodipodi:stroke-cmyk="(0 0 0 0.8)"
       style="font-size:12px;fill:#5ec5ed;fill-opacity:1;fill-rule:evenodd;stroke:#5ec5ed;stroke-width:3.40557098;stroke-linejoin:round;stroke-miterlimit:4;stroke-opacity:1;stroke-dasharray:none;display:inline"
       transform="matrix(1,0,-0.35965009,0.93308725,0,0)"
       width="66.576859"
       x="326.78497"
       y="450.923" />
    <path
       style="fill:#ffffff;fill-opacity:1;stroke:#5ec5ed;stroke-width:1.64483023;stroke-linecap:round;stroke-linejoin:round;stroke-miterlimit:4;stroke-opacity:1;stroke-dasharray:none;stroke-dashoffset:0;display:inline"
       d="m 199.75637,431.01798 c -5.09583,-0.0894 -10.49683,3.24873 -13.74736,8.05297 -1.10154,-0.58739 -2.42378,-0.9143 -3.90847,-0.94032 -5.00464,-0.0878 -10.2572,3.402 -12.60935,8.10927 -0.59223,-0.17142 -1.24005,-0.26407 -1.93194,-0.27601 -4.50328,-0.0791 -9.25241,3.4664 -10.60978,7.91426 -1.3574,4.44788 1.18879,8.12114 5.69207,8.2001 1.41638,0.0258 2.86281,-0.31216 4.21446,-0.91895 1.3871,2.05367 4.23996,3.42831 7.91361,3.49271 2.95926,0.052 5.90087,-0.75499 8.30373,-2.10648 1.15461,1.82218 3.19724,2.97411 5.83482,3.02037 3.42647,0.06 6.99531,-1.76673 9.48326,-4.54376 0.92961,0.65473 2.08767,1.04155 3.4237,1.06502 4.67056,0.082 9.78437,-4.20852 11.42452,-9.583 1.57966,-5.17625 -0.64452,-9.46357 -4.98291,-9.84649 1.21694,-6.46005 -2.34553,-11.53167 -8.50036,-11.63962 z"
       id="path4074-2-7"
       inkscape:connector-curvature="0" />
  </g>
</svg>
